<?xml version="1.0" encoding="utf-8"?>
<!-- Generator: Adobe Illustrator 22.0.0, SVG Export Plug-In . SVG Version: 6.00 Build 0)  -->
<svg version="1.1" id="Layer_1" xmlns="http://www.w3.org/2000/svg" xmlns:xlink="http://www.w3.org/1999/xlink" x="0px" y="0px"
	 width="267px" height="267px" viewBox="0 0 267 267" style="enable-background:new 0 0 267 267;" xml:space="preserve">
<style type="text/css">
	.st0{fill:#FFFFFF;}
</style>
<path id="White_2_" class="st0" d="M251.3,1H15.2C7.1,1,0.6,7.6,0.6,15.7v236.1c0,8.1,6.6,14.7,14.7,14.7h127.1V163.7h-34.6v-40.1
	h34.6V94c0-34.3,20.9-53,51.5-53c14.7,0,27.2,1.1,30.9,1.6v35.8l-21.2,0c-16.6,0-19.9,7.9-19.9,19.5v25.6h39.7l-5.2,40.1h-34.5
	v102.8h67.6c8.1,0,14.7-6.6,14.7-14.7V15.7C266,7.6,259.4,1,251.3,1z"/>
</svg>
