<svg width="158" height="80" viewBox="0 0 158 80" fill="none" xmlns="http://www.w3.org/2000/svg">
<g clip-path="url(#clip0_2425_3725)">
<path d="M89.6967 28.1788H91.6385V17.3433L99.851 28.1788H101.51V13.9471H99.5678V24.8231L91.3553 13.9471H89.6967V28.1788ZM89.6967 65.8607H91.5981V55.4699L94.8345 61.4942H96.3314L99.6083 55.3891V65.8607H101.51V51.629H99.6892L95.6841 59.1492L91.5172 51.629H89.6967V65.8607H89.6967ZM103.613 23.125C103.613 26.1573 105.838 28.4214 108.67 28.4214C110.329 28.4214 111.704 27.6532 112.473 26.319V28.1788H114.375V18.0711H112.473V19.8905C111.704 18.5967 110.329 17.8285 108.67 17.8285C105.838 17.8285 103.613 20.0926 103.613 23.125V23.125ZM104.008 61.8984C104.008 64.4456 105.627 66.1033 108.175 66.1033C110.724 66.1033 112.383 64.4456 112.383 61.8984V55.7529H110.481V62.0197C110.481 63.5157 109.591 64.486 108.175 64.486C106.8 64.486 105.91 63.5157 105.91 62.0197V55.7529H104.008V61.8984ZM105.555 23.125C105.555 21.063 107.052 19.567 109.034 19.567C110.976 19.567 112.473 21.063 112.473 23.125C112.473 25.1465 110.976 26.6829 109.034 26.6829C107.052 26.6829 105.555 25.1465 105.555 23.125ZM114.163 65.0925C115.134 65.8203 116.469 66.1033 117.48 66.1033C119.948 66.1033 121.404 64.9712 121.404 63.0709C121.404 61.6154 120.676 60.5642 118.694 60.0791L117.399 59.7556C116.388 59.513 116.024 59.0683 116.024 58.4618C116.024 57.6936 116.792 57.1276 118.006 57.1276C119.098 57.1276 120.11 57.4511 121 58.0575V56.2381C120.191 55.7934 119.058 55.5104 117.885 55.5104C115.943 55.5104 114.163 56.6829 114.163 58.5427C114.163 59.8365 114.891 60.9281 116.914 61.4133L118.087 61.6963C119.139 61.9389 119.584 62.3836 119.584 63.1114C119.584 64.0009 118.815 64.486 117.521 64.486C116.428 64.486 115.134 64.1222 114.163 63.2731V65.0925V65.0925ZM115.912 19.6883H117.692V24.3783C117.692 27.0468 119.189 28.4214 121.333 28.4214C121.94 28.4214 122.627 28.2597 123.396 27.8958V26.319C122.789 26.6425 122.263 26.8042 121.616 26.8042C120.443 26.8042 119.593 25.9956 119.593 24.3379V19.6883H123.153V18.0711H119.593V15.0792H117.692V18.0711H115.912V19.6883L115.912 19.6883ZM125.014 24.2166C125.014 26.7638 126.633 28.4214 129.181 28.4214C131.73 28.4214 133.389 26.7638 133.389 24.2166V18.0711H131.487V24.3379C131.487 25.8338 130.597 26.8042 129.181 26.8042C127.806 26.8042 126.916 25.8338 126.916 24.3379V18.0711H125.014V24.2166ZM142.532 23.125C142.532 26.1573 144.757 28.4214 147.588 28.4214C149.247 28.4214 150.623 27.6532 151.391 26.319V28.1788H153.293V18.0711H151.391V19.8905C150.623 18.5967 149.247 17.8285 147.588 17.8285C144.757 17.8285 142.532 20.0926 142.532 23.125V23.125ZM144.473 23.125C144.473 21.063 145.97 19.567 147.953 19.567C149.894 19.567 151.391 21.063 151.391 23.125C151.391 25.1465 149.894 26.6829 147.953 26.6829C145.97 26.6829 144.473 25.1465 144.473 23.125ZM155.882 28.1788H157.783V13.9471H155.882V28.1788ZM135.661 28.1788V18.0711H137.563V20.0118C138.008 18.7584 139.181 17.8285 140.597 17.8285C141.042 17.8285 141.527 17.8689 141.972 18.0711V19.8501C141.446 19.6479 140.961 19.6075 140.476 19.6075C139.262 19.6075 137.563 20.6991 137.563 22.9632V28.1788H135.661V28.1788ZM144.827 65.8607V55.7529H146.778V57.0467C147.151 56.1168 148.106 55.5104 149.227 55.5104C150.389 55.5104 151.427 56.0764 151.925 57.2085C152.548 56.036 153.585 55.5104 154.706 55.5104C156.699 55.5104 157.986 56.9254 157.986 59.1896V65.8607H156.035V59.0683C156.035 57.4511 155.121 57.1276 154.416 57.1276C153.212 57.1276 152.382 58.0171 152.382 59.1492V65.8607H150.431V59.1896C150.431 57.5319 149.559 57.1276 148.812 57.1276C147.608 57.1276 146.778 58.0171 146.778 59.1896V65.8607H144.827V65.8607ZM134.112 61.8984V55.7529H136.013V62.0197C136.013 63.5157 136.904 64.486 138.319 64.486C139.695 64.486 140.625 63.5157 140.625 62.0197V55.7529H142.527V61.8984C142.527 64.4456 140.868 66.1033 138.319 66.1033C135.771 66.1033 134.112 64.4456 134.112 61.8984ZM132.214 60.6047C132.214 57.6936 130.717 55.5103 127.683 55.5103C124.77 55.5103 122.748 57.7745 122.748 60.8068C122.748 63.9604 124.892 66.1033 127.966 66.1033C129.746 66.1033 131.122 65.4968 131.931 64.7286V62.8284C131.081 63.8392 129.746 64.486 128.29 64.486C126.105 64.486 124.811 63.1114 124.609 61.2516H132.174C132.214 60.8877 132.214 60.6855 132.214 60.6047V60.6047ZM124.689 59.7152C124.973 58.0575 126.065 57.1276 127.602 57.1276C129.301 57.1276 130.272 58.2192 130.313 59.7152H124.689ZM89.6967 47.0198H91.6385V40.6721H99.5678V47.0198H101.51V32.7881H99.5678V38.8527H91.6385V32.7881H89.6967V47.0198ZM103.717 34.1235C103.717 34.8512 104.283 35.4173 105.052 35.4173C105.82 35.4173 106.387 34.8512 106.387 34.1235C106.387 33.3957 105.82 32.7892 105.052 32.7892C104.283 32.7892 103.717 33.3957 103.717 34.1235ZM104.121 47.021H106.023V36.9132H104.121V47.021ZM108.288 46.2529C109.3 46.9806 110.675 47.2636 111.727 47.2636C114.235 47.2636 115.773 46.1316 115.773 44.2313C115.773 42.7758 115.004 41.7246 112.941 41.2394L111.606 40.916C110.594 40.6734 110.19 40.2287 110.19 39.6222C110.19 38.8944 110.837 38.3284 111.97 38.288C113.143 38.2475 114.276 38.571 115.247 39.2179V37.3985C114.438 36.9537 113.264 36.6707 112.051 36.6707C110.028 36.6707 108.288 37.8432 108.288 39.703C108.288 40.9968 109.016 42.0885 111.12 42.5736L112.334 42.8567C113.426 43.0992 113.871 43.544 113.871 44.2717C113.871 45.1208 113.143 45.606 111.929 45.6464C110.756 45.6868 109.3 45.3229 108.288 44.4335V46.2529H108.288ZM116.582 38.5305H118.443V43.2205C118.443 45.889 119.939 47.2636 122.084 47.2636C122.69 47.2636 123.378 47.1019 124.147 46.738V45.1612C123.54 45.4847 123.014 45.6464 122.367 45.6464C121.194 45.6464 120.344 44.8378 120.344 43.1801V38.5305H124.066V36.9133H120.344V33.9214H118.443V36.9133H116.582V38.5305V38.5305ZM124.812 41.9672C124.812 44.9591 127.199 47.2636 130.233 47.2636C133.267 47.2636 135.614 44.9591 135.614 41.9672C135.614 38.9753 133.267 36.6707 130.233 36.6707C127.199 36.6707 124.812 38.9753 124.812 41.9672ZM126.754 41.9672C126.754 39.9456 128.251 38.4093 130.233 38.4093C132.175 38.4093 133.672 39.9456 133.672 41.9672C133.672 44.0292 132.175 45.5251 130.233 45.5251C128.251 45.5251 126.754 44.0292 126.754 41.9672ZM137.475 47.021H139.376V41.8054C139.376 39.5412 141.075 38.4496 142.289 38.4496C142.774 38.4496 143.26 38.49 143.786 38.6922V36.9132C143.341 36.7111 142.855 36.6706 142.41 36.6706C140.994 36.6706 139.821 37.6005 139.376 38.8539V36.9132H137.475V47.021V47.021ZM144.757 36.9132L149.207 46.8592C148.559 48.1126 147.71 48.7595 146.577 48.7595C146.092 48.7595 145.606 48.7191 145.08 48.5169V50.2959C145.525 50.498 146.051 50.5385 146.496 50.5385C148.721 50.5385 150.097 49.0829 150.946 47.1018L155.315 36.9132H153.293L150.178 44.7568L146.901 36.9132H144.757V36.9132Z" fill="white"/>
<path d="M47.9707 38.1214L53.7543 34.8109L49.6456 35.1616L49.0291 34.0944L51.3873 30.7135L45.6268 34.0641L44.8558 32.8244L53.1561 28.0352L53.9417 29.3L51.0671 33.6702L56.2564 33.3069L56.9597 34.6192L48.6594 39.4085L47.9707 38.1214H47.9707ZM44.8593 47.1326L53.1596 51.9219L53.9452 50.6571L51.0356 46.3473L56.2599 46.6502L56.9632 45.3379L48.6629 40.5486L47.9742 41.8357L53.7578 45.1461L49.6491 44.7955L49.0325 45.8627L51.3907 49.2435L45.6303 45.893L44.8593 47.1326V47.1326ZM36.2659 47.7057V57.2843L37.7547 57.3317L40.0345 52.6587L42.3842 57.3317L43.873 57.2843V47.7057L42.4133 47.7532L42.4365 54.4141L40.686 50.6827H39.4529L37.7024 54.4141L37.7256 47.7532L36.2659 47.7057ZM31.4725 40.5546L23.1722 45.3439L23.8755 46.6562L29.0649 46.2929L26.1903 50.6631L26.9758 51.9279L35.2761 47.1386L34.5051 45.899L28.7447 49.2495L31.1029 45.8687L30.4864 44.8015L26.3776 45.1521L32.1613 41.8417L31.4725 40.5546H31.4725ZM35.2727 32.8304L26.9723 28.0412L26.1868 29.306L29.0963 33.6158L23.872 33.3129L23.1688 34.6252L31.4691 39.4145L32.1578 38.1274L26.3741 34.817L30.4829 35.1676L31.0994 34.1004L28.7412 30.7195L34.5017 34.0701L35.2727 32.8304V32.8304ZM43.8661 32.2574V22.6788L42.3773 22.6313L40.0974 27.3044L37.7477 22.6313L36.2589 22.6788V32.2574L37.7186 32.2099L37.6954 25.549L39.446 29.2804H40.679L42.4296 25.549L42.4064 32.2099L43.8661 32.2574Z" fill="white"/>
<path d="M56.6998 16.5096L52.2416 24.9887L50.8222 24.1897L52.6725 20.6705L48.8215 18.6482L46.9712 22.1673L45.5075 21.4523L49.9657 12.9732L51.4293 13.6882L49.5789 17.2075L53.43 19.2298L55.2803 15.7105L56.6998 16.5096ZM64.8231 25.5558L61.5483 27.8127L59.0787 24.2336L62.3535 21.9767L61.3899 20.6638L53.4998 26.1015L54.4634 27.4143L57.7381 25.1575L60.2078 28.7366L56.9331 30.9935L57.8184 32.3602L65.7085 26.9225L64.8231 25.5558ZM68.6953 38.7053L64.7462 39.1829L64.2236 34.8667L68.1727 34.3891L67.9299 32.7792L58.4151 33.9299L58.6579 35.5398L62.6069 35.0622L63.1295 39.3784L59.1805 39.856L59.329 41.4774L68.8438 40.3267L68.6953 38.7053ZM66.01 52.1471L62.291 50.736L63.8351 46.6714L67.5541 48.0825L68.0877 46.5442L59.1275 43.1444L58.5939 44.6827L62.3127 46.0938L60.7686 50.1584L57.0498 48.7473L56.4274 50.2519L65.3876 53.6518L66.01 52.1471ZM57.3821 62.8024L54.7452 59.8258L58.0024 56.9438L60.6393 59.9204L61.8271 58.8061L55.4739 51.6345L54.2861 52.7488L56.9229 55.7253L53.6657 58.6073L51.0289 55.6308L49.7782 56.6741L56.1314 63.8457L57.3821 62.8024ZM44.788 68.2306L43.8371 64.3703L48.0613 63.331L49.0122 67.1913L50.582 66.7562L48.291 57.4554L46.7211 57.8905L47.672 61.7507L43.4478 62.79L42.497 58.9298L40.9044 59.2728L43.1954 68.5735L44.788 68.2306ZM31.1123 67.1883L32.0652 63.3284L36.2888 64.3699L35.3359 68.2297L36.9283 68.5735L39.2242 59.274L37.6318 58.9302L36.6789 62.7899L32.4553 61.7484L33.4082 57.8887L31.8385 57.4528L29.5426 66.7523L31.1123 67.1883ZM19.4874 59.9142L22.1259 56.939L25.3816 59.8227L22.7431 62.7979L23.9933 63.8419L30.3502 56.6736L29.1001 55.6297L26.4617 58.6048L23.206 55.7211L25.8444 52.746L24.6572 51.631L18.3002 58.7993L19.4874 59.9142ZM12.5761 48.0746L16.2958 46.6655L17.8378 50.7309L14.1181 52.14L14.7397 53.645L23.7016 50.2499L23.08 48.7449L19.3605 50.154L17.8185 46.0886L21.5381 44.6795L21.0053 43.1409L12.0433 46.536L12.5761 48.0746ZM11.9613 34.3813L15.9102 34.861L15.3854 39.1769L11.4364 38.6972L11.2871 40.3185L20.8013 41.4742L20.9507 39.8529L17.0019 39.3733L17.5268 35.0573L21.4755 35.537L21.7192 33.9272L12.205 32.7715L11.9613 34.3813ZM17.784 21.9707L21.0576 24.2293L18.586 27.8072L15.3124 25.5486L14.4263 26.9148L22.3136 32.3566L23.1996 30.9904L19.9261 28.7318L22.3977 25.1539L25.6712 27.4125L26.6354 26.1002L18.7482 20.6584L17.784 21.9707ZM28.7103 13.6855L30.5588 17.2058L26.7067 19.2261L24.8582 15.7058L23.4383 16.5041L27.892 24.9855L29.3119 24.1873L27.4634 20.6671L31.3155 18.6468L33.164 22.167L34.628 21.4527L30.1743 12.9713L28.7103 13.6855ZM42.2377 11.4234V15.399H37.8873V11.4234L36.2589 11.4709V21.0493L37.8873 21.0018V17.0264H42.2377V21.0018L43.8661 21.0493V11.4709L42.2377 11.4234Z" fill="white"/>
<path d="M56.5688 3.65008L53.4558 12.7092L52.019 12.1658L49.9262 4.44182L47.8166 10.7235L46.2611 10.2398L49.3741 1.1807L50.8417 1.63423L52.9345 9.35825L55.0441 3.07658L56.5688 3.65008L56.5688 3.65008ZM66.2226 9.93647L62.1865 15.1932L62.7165 7.20861L61.4758 6.30341L55.5882 13.8615L56.9023 14.8238L60.9385 9.56701L60.4084 17.5516L61.5908 18.5317L67.4784 10.9737L66.2226 9.93647ZM74.5668 20.0521L69.0414 23.7143L72.1369 16.3343L71.2575 15.0755L63.2333 20.3136L64.1636 21.6502L69.689 17.988L66.5935 25.368L67.3934 26.6786L75.4176 21.4406L74.5668 20.0521V20.0521ZM79.1724 32.3273L72.7566 33.9981L78.082 28.0225L77.6592 26.5465L68.368 28.897L68.8137 30.463L75.2295 28.7922L69.904 34.7678L70.2348 36.2671L79.526 33.9166L79.1724 32.3273ZM79.5404 45.4319L72.9293 44.9303L79.9077 41.0065L79.9873 39.4733L70.4359 38.6815L70.3486 40.3073L76.9596 40.8089L69.9813 44.7327L69.807 46.258L79.3584 47.0499L79.5404 45.4319ZM75.6309 57.9459L69.541 55.3263L77.416 53.8795L77.9895 52.4552L69.2128 48.6069L68.602 50.1162L74.6919 52.7359L66.8168 54.1827L66.1565 55.5688L74.9331 59.4172L75.6309 57.9459H75.6309ZM67.8675 68.5133L62.9587 64.0594L70.8771 65.2465L71.8822 64.0854L64.8313 57.5976L63.7633 58.827L68.6721 63.2809L60.7537 62.0938L59.6787 63.1906L66.7295 69.6784L67.8675 68.5133ZM57.0915 75.9889L53.8957 70.1835L60.9994 73.8757L62.3272 73.1037L57.7662 64.6794L56.3566 65.4956L59.5525 71.3011L52.4487 67.6089L51.0757 68.2974L55.6367 76.7217L57.0915 75.9889H57.0915ZM44.4706 79.5627L43.3341 73.0348L48.8533 78.8321L50.3601 78.5328L48.7831 69.085L47.1847 69.3995L48.3213 75.9275L42.802 70.1301L41.2796 70.3358L42.8565 79.7837L44.4706 79.5627ZM31.3724 78.8475L32.4183 72.3044L35.7551 79.5787L37.2774 79.7845L38.8554 70.3368L37.2414 70.1157L36.1955 76.6587L32.8588 69.3845L31.3521 69.085L29.774 78.5327L31.3724 78.8475ZM19.2163 73.9207L22.3313 68.0715L23.1239 76.0344L24.4969 76.7231L29.0589 68.2993L27.6042 67.5664L24.4891 73.4156L23.6965 65.4527L22.3688 64.6806L17.8067 73.1043L19.2163 73.9207V73.9207ZM9.31943 65.3162L14.166 60.7947L12.3286 68.5834L13.4035 69.6803L20.4551 63.1933L19.3173 62.028L14.4707 66.5495L16.3081 58.7608L15.3032 57.5997L8.25152 64.0866L9.31943 65.3162L9.31943 65.3162ZM2.75432 53.9664L8.80729 51.2626L4.53901 58.033L5.19923 59.4193L13.9764 55.572L13.2788 54.1007L7.22583 56.8044L11.4941 50.034L10.9209 48.6097L2.14374 52.4569L2.75432 53.9664V53.9664ZM0.232359 41.1012L6.8358 40.5081L0.599141 45.5266L0.773217 47.052L10.3247 46.2613L10.143 44.6433L3.53954 45.2365L9.77621 40.2179L9.69679 38.6847L0.145264 39.4754L0.232359 41.1012V41.1012ZM2.02682 28.1146L8.46518 29.6964L0.935943 32.4193L0.605012 33.9185L9.8959 36.2701L10.2497 34.6808L3.8113 33.099L11.3405 30.3761L11.7635 28.9002L2.47265 26.5486L2.02682 28.1146ZM7.94325 16.414L13.5189 19.9993L5.51292 20.1315L4.71284 21.4421L12.7363 26.6811L13.5873 25.2927L8.01166 21.7074L16.0176 21.5753L16.8972 20.3166L8.8737 15.0775L7.94324 16.414H7.94325ZM17.3405 7.26719L21.4492 12.4675L13.8341 9.99462L12.6516 10.9746L18.5382 18.5334L19.7942 17.4963L15.6855 12.296L23.3006 14.7689L24.5414 13.8639L18.6548 6.30506L17.3405 7.26719ZM29.2004 1.66535L31.3969 7.91719L24.9978 3.10718L23.561 3.65032L26.6729 12.7098L28.1977 12.1365L26.0012 5.88462L32.4003 10.6946L33.868 10.2413L30.756 1.18182L29.2004 1.66535ZM42.2376 0.2155L42.284 6.84138L37.7944 0.2155L36.2589 0.262961V9.84138L37.8873 9.79392L37.841 3.16804L42.3306 9.79392L43.8661 9.84138V0.262961L42.2376 0.2155Z" fill="white"/>
</g>
<defs>
<clipPath id="clip0_2425_3725">
<rect width="158" height="80" fill="white"/>
</clipPath>
</defs>
</svg>
