<?xml version="1.0" encoding="utf-8"?>
<!-- Generator: Adobe Illustrator 22.0.0, SVG Export Plug-In . SVG Version: 6.00 Build 0)  -->
<svg version="1.1" id="Layer_1" xmlns="http://www.w3.org/2000/svg" xmlns:xlink="http://www.w3.org/1999/xlink" x="0px" y="0px"
	 width="244px" height="244px" viewBox="0 0 244 244" style="enable-background:new 0 0 244 244;" xml:space="preserve">
<style type="text/css">
	.st0{fill:#FFFFFF;}
</style>
<g>
	<path class="st0" d="M122.1,0.8C55.2,0.8,1,55,1,121.9c0,51.3,31.9,95.2,76.9,112.8c-1.1-9.6-2-24.3,0.4-34.8
		c2.2-9.5,14.2-60.2,14.2-60.2s-3.6-7.3-3.6-17.9c0-16.8,9.8-29.4,21.9-29.4c10.4,0,15.3,7.8,15.3,17c0,10.4-6.6,25.9-10.1,40.4
		c-2.9,12.1,6.1,21.9,17.9,21.9c21.5,0,38.1-22.7,38.1-55.4c0-29-20.8-49.2-50.6-49.2c-34.5,0-54.7,25.8-54.7,52.5
		c0,10.4,4,21.5,9,27.6c1,1.2,1.1,2.3,0.8,3.5c-0.9,3.8-3,12.1-3.4,13.8c-0.5,2.2-1.8,2.7-4.1,1.6C53.9,159,44.5,137,44.5,119.1
		c0-38.2,27.7-73.3,80-73.3c42,0,74.7,29.9,74.7,70c0,41.8-26.3,75.4-62.8,75.4c-12.3,0-23.8-6.4-27.7-14c0,0-6.1,23.1-7.6,28.8
		C98.4,216.6,91,229.7,86,237.8c11.4,3.5,23.3,5.4,35.9,5.4c66.9,0,121.1-54.2,121.1-121.1C243.2,55,189,0.8,122.1,0.8z"/>
</g>
</svg>
