<?xml version="1.0" encoding="utf-8"?>
<!-- Generator: Adobe Illustrator 22.0.0, SVG Export Plug-In . SVG Version: 6.00 Build 0)  -->
<svg version="1.1" id="Layer_1" xmlns="http://www.w3.org/2000/svg" xmlns:xlink="http://www.w3.org/1999/xlink" x="0px" y="0px"
	 width="389px" height="317px" viewBox="0 0 389 317" style="enable-background:new 0 0 389 317;" xml:space="preserve">
<style type="text/css">
	.st0{fill:#FFFFFF;}
</style>
<path class="st0" d="M121.7,316.3c146,0,225.9-121,225.9-225.9c0-3.4-0.1-6.9-0.2-10.3c15.5-11.2,29-25.2,39.6-41.1
	c-14.2,6.3-29.5,10.6-45.6,12.5c16.4-9.8,29-25.4,34.9-43.9C361,16.7,344,23.3,325.9,26.9c-14.5-15.4-35.1-25.1-58-25.1
	c-43.8,0-79.4,35.6-79.4,79.4c0,6.2,0.7,12.3,2.1,18.1C124.6,95.9,66.1,64.4,27,16.3C20.1,28,16.2,41.7,16.2,56.2
	c0,27.5,14,51.9,35.3,66.1c-13-0.4-25.3-4-36-9.9c0,0.3,0,0.7,0,1c0,38.5,27.4,70.6,63.7,77.8c-6.7,1.8-13.7,2.8-20.9,2.8
	c-5.1,0-10.1-0.5-14.9-1.4c10.1,31.5,39.4,54.5,74.2,55.1c-27.2,21.3-61.4,34-98.6,34c-6.4,0-12.7-0.4-18.9-1.1
	C35.2,303.1,76.9,316.3,121.7,316.3"/>
</svg>
