<?xml version="1.0" encoding="utf-8"?>
<!-- Generator: Adobe Illustrator 22.0.0, SVG Export Plug-In . SVG Version: 6.00 Build 0)  -->
<svg version="1.1" id="Layer_1" xmlns="http://www.w3.org/2000/svg" xmlns:xlink="http://www.w3.org/1999/xlink" x="0px" y="0px"
	 width="224px" height="159px" viewBox="0 0 224 159" style="enable-background:new 0 0 224 159;" xml:space="preserve">
<style type="text/css">
	.st0{fill:#FFFFFF;}
</style>
<path class="st0" d="M218.6,25.4c-2.6-9.7-10.1-17.3-19.7-19.8c-17.4-4.7-87.1-4.7-87.1-4.7s-69.7,0-87.1,4.7
	C15.1,8.2,7.5,15.8,5,25.4c-4.7,17.5-4.7,54-4.7,54s0,36.5,4.7,54c2.6,9.7,10.1,17.3,19.7,19.8c17.4,4.7,87.1,4.7,87.1,4.7
	s69.7,0,87.1-4.7c9.6-2.6,17.2-10.2,19.7-19.8c4.7-17.5,4.7-54,4.7-54S223.3,42.9,218.6,25.4z M89,112.6V46.3l58.3,33.2L89,112.6z"
	/>
</svg>
